<mxfile host="app.diagrams.net" modified="2023-12-16T11:49:28.871Z" agent="Mozilla/5.0 (Windows NT 10.0; Win64; x64) AppleWebKit/537.36 (KHTML, like Gecko) Chrome/120.0.0.0 Safari/537.36" version="22.1.11" etag="oiojZ86Hh5hpSq-I_rYl" type="github">
  <diagram name="Pagina-1" id="iXoNLh1TIFx7yb9QbkCo">
    <mxGraphModel>
      <root>
        <mxCell id="0" />
        <mxCell id="1" parent="0" />
      </root>
    </mxGraphModel>
  </diagram>
</mxfile>
